-
If you care to share, you should love to seed,

please Seed what you leech and make the speed Faster with your speed,

Remember to visit
 
http://www.torrentkit.com



-
                                                     
                                                   
                                                         
                                                          
                                                           
                                                          
                                                          
                                                          
                                                           
                                                         
                                                          
                                                        
                                                      
                                     
                                                 
                                                   
                                             
                                              
                                                     
                                                      
                                                      
                                                      
                                                    
                                                     
                                                   
                                                     
                                                     
                                                      
                                                     
                                                      
                                                    
                 ARTiCHOKE                        
                                                
                      
                                                        
                                                      
                                                      
                                               
                                          
                                                   
                                            
                                                    
                                                       
                                                        
                                                      
                                                
                                                        
                                                 
                                              
                                                  
                                                
                                                  
                                        

      
                                
      SPRiNTER proudly presents...     
                                
      
 
 Sunset.Pass.1946.DVDRip.XViD-SPRiNTER   http://www.imdb.com/title/tt0038996/
 Subtitles: N/A

 Date: 2010.08

 Director:William Berke

 Genre: Action | Adventure | Romance | Western 


 Plot: A young outlaw gets involved with a gang of crooks. When he tells them he is breaking away, they threaten to pin a false murder charge on him. But he is rescued and reformed by his sister, and an undercover agent for the express company.
 

 Cast
 
 James Warren ...  Rocky 
 Nan Leslie ...  Jane Preston 
 John Laurenz ...  Chito Bustamonte Rafferty 
 Jane Greer ...  Helen 'Lolita' Baxter 
 Robert Barrat ...  Rand Curtis 
 Harry Woods ...  Cinnabar 
 Robert Clarke ...  Ash Preston, Jane's Brother 
 Steve Brodie ...  Slagle, Cattleman's Bank Cashier 
 Harry Harvey ...  Banker Daab 






      
                 
      Release notes     
                 
      

 Enjoy!


      
           
     Greetings    
           
      


NTX aAF FiCO HNR CiNEFiLE AEN HUMANiSM


      
           
      Details     
           
      



Format/Info                      : Audio Video Interleave
File size                        : 699 MiB
Duration                         : 59mn 58s
Overall bit rate                 : 1 630 Kbps
Writing application              : Nandub v1.0rc2
Writing library                  : Nandub build 1852/release

Video
ID                               : 0
Format                           : MPEG-4 Visual
Format profile                   : Advanced Simple@L5
Format settings, BVOP            : No
Format settings, QPel            : No
Format settings, GMC             : No warppoints
Format settings, Matrix          : Default (H.263)
Codec ID                         : XVID
Codec ID/Hint                    : XviD
Duration                         : 59mn 58s
Bit rate                         : 1 565 Kbps
Width                            : 512 pixels
Height                           : 384 pixels
Display aspect ratio             : 4:3
Frame rate                       : 23.976 fps
Resolution                       : 8 bits
Colorimetry                      : 4:2:0
Scan type                        : Progressive
Bits/(Pixel*Frame)               : 0.332
Stream size                      : 672 MiB (96%)
Writing library                  : XviD 1.1.2 (UTC 2006-11-01)

Audio
ID                               : 1
Format                           : MPEG Audio
Format version                   : Version 1
Format profile                   : Layer 3
Codec ID                         : 55
Codec ID/Hint                    : MP3
Duration                         : 59mn 58s
Bit rate mode                    : Variable
Bit rate                         : 51.9 Kbps
Minimum bit rate                 : 40.0 Kbps
Channel(s)                       : 1 channel
Sampling rate                    : 48.0 KHz
Stream size                      : 22.3 MiB (3%)
Alignment                        : Aligned on interleaves
Interleave, duration             : 24 ms (0.58 video frame)
Interleave, preload duration     : 410 ms
Writing library                  : LAME3.95 
Encoding settings                : -m m -V 6 -q 3 -lowpass 16 --vbr-old -b 40